<svg width="17" height="16" viewBox="0 0 17 16" fill="none" xmlns="http://www.w3.org/2000/svg">
<path d="M8.56083 3.98483L9.00909 4.80845L9.4432 3.97728C10.1046 2.71093 10.8776 2.01993 11.6232 1.70995C12.3642 1.40189 13.1349 1.44603 13.851 1.7567C15.309 2.38924 16.5 4.11748 16.5 6.04347C16.5 8.03429 15.6499 10.4216 14.2546 12.3109C12.8552 14.2059 10.9864 15.5 8.99995 15.5C7.01356 15.5 5.14472 14.2059 3.74534 12.3109C2.35011 10.4216 1.5 8.03429 1.5 6.04347C1.5 4.11179 2.66665 2.38622 4.1063 1.75602C4.81318 1.44659 5.58015 1.40134 6.32811 1.71034C7.08166 2.02167 7.87006 2.71562 8.56083 3.98483Z" fill="#A65A2E" stroke="#A65A2E"/>
<path d="M6.09407 2.627C5.96706 2.11897 4.43012 3.01838 4.24533 3.12926C3.65672 3.48242 3.20876 3.87857 3.20876 4.59863C3.20876 5.37111 5.06313 4.26204 5.37808 4.12308C5.77666 3.94724 5.08227 4.99736 4.8972 5.1276C4.45186 5.44098 3.9219 5.6051 3.45989 5.88633C2.91771 6.21635 2.25281 6.24913 2.45003 7.13663C2.53835 7.53406 3.40729 7.53202 3.69499 7.53202C3.93101 7.53202 4.90036 7.30592 4.91857 7.40379C5.11653 8.46784 4.59297 9.05668 4.02092 9.79218C3.2639 10.7655 5.33372 10.4128 5.70936 10.225" stroke="#FF8585" stroke-width="3" stroke-linecap="round"/>
<path d="M7.24814 4.93506C6.37879 5.901 5.64404 7.12682 5.80549 8.47223C5.86275 8.9494 7.38788 8.36948 7.53667 8.1463C7.74078 7.84013 7.89631 7.53623 7.92138 7.1685C7.9351 6.96718 8.11718 6.51772 8.18854 6.95477C8.23703 7.25181 8.35279 7.53481 8.39158 7.82571C8.44952 8.26028 8.18261 8.5572 8.01221 8.9264C7.82261 9.3372 7.24683 9.74616 6.95961 10.1072C6.58914 10.573 6.67108 11.042 6.67108 11.614C6.67108 12.3051 7.52345 12.1019 7.92138 12.0522" stroke="#FF8585" stroke-width="3" stroke-linecap="round"/>
<path d="M9.46024 5.51221C8.40106 6.29265 8.23289 8.2916 8.13514 9.47683C8.07324 10.2273 8.40641 12.4755 7.41915 12.8751C6.48322 13.2539 5.99787 10.9663 5.99787 12.8751C5.99787 13.0608 5.94372 13.3487 6.00856 13.5269C6.09586 13.767 6.92021 13.3354 7.01307 13.2865C7.82646 12.8584 8.38705 12.5636 8.787 11.7637" stroke="#FF8585" stroke-width="3" stroke-linecap="round"/>
<path d="M8.88318 9.84018C8.88318 10.6917 9.07938 11.825 9.43887 12.5973C9.54591 12.8272 9.87006 13.2064 10.1335 13.2064C10.614 13.2064 10.6144 11.9736 10.6144 11.6622C10.6144 10.7339 10.4121 9.91108 9.9625 9.09214C9.82484 8.84141 9.3874 8.11915 9.88769 8.03419C11.0166 7.8425 12.0576 8.81847 12.7516 9.58371C13.102 9.97006 13.115 10.2637 13.115 10.7485C13.115 11.2906 12.1274 10.8485 11.9608 10.7058" stroke="#FF8585" stroke-width="3" stroke-linecap="round"/>
<path d="M10.6144 6.47391C11.4519 6.47391 12.1446 6.65621 12.773 7.27004C13.133 7.62169 13.4581 8.14958 13.6493 8.62186C13.6788 8.69484 13.692 9.05296 13.692 8.79284C13.692 7.85957 13.692 6.92629 13.692 5.99302C13.692 5.57622 13.6376 5.45823 13.2112 5.26635C12.723 5.04669 11.9722 4.92737 11.4319 4.84424C11.04 4.78396 10.6154 3.9934 11.1968 3.87713C11.8157 3.75334 12.9803 3.38435 13.4783 3.93056C13.6512 4.12023 14.506 4.70754 13.9806 4.8389" stroke="#FF8585" stroke-width="3" stroke-linecap="round"/>
<path d="M11.9608 2.72309C11.9608 2.23199 12.8151 2.43013 13.1043 2.59485C13.6738 2.91929 14.3273 3.41337 14.6431 4.00545C14.8216 4.3402 15.1121 4.67973 15.1347 5.07408C15.1565 5.4558 15.1347 5.84577 15.1347 6.2282C15.1347 6.7672 14.7871 7.12483 14.4614 7.53193" stroke="#FF8585" stroke-width="3" stroke-linecap="round"/>
<path d="M14.4614 7.53174C14.4806 8.16432 14.7863 8.39775 15.2255 8.78204C15.4544 8.9823 15.5687 9.46699 15.2308 9.55145" stroke="#FF8585" stroke-width="3" stroke-linecap="round"/>
<path d="M6.95957 3.10791C6.82616 3.11625 6.84016 3.13114 6.76721 3.20409" stroke="#FF8585" stroke-width="3" stroke-linecap="round"/>
<path d="M9.46027 13.8794C9.15319 13.8794 9.14943 13.9686 9.07556 14.2641" stroke="#FF8585" stroke-width="3" stroke-linecap="round"/>
<path d="M12.2494 12.7256H12.3456" stroke="#FF8585" stroke-width="3" stroke-linecap="round"/>
<path d="M3.4011 2.62695C2.91647 2.66572 2.52576 3.54127 2.43933 3.97343" stroke="white" stroke-linecap="round"/>
<path d="M4.93994 3.01172C5.52415 3.21394 5.32832 3.59245 5.70936 3.97349" stroke="white" stroke-linecap="round"/>
<path d="M11.48 3.78098C11.7772 3.64021 12.0222 3.58862 12.3456 3.58862" stroke="white" stroke-linecap="round"/>
<path d="M13.692 6.85864C13.9301 6.9847 14.0306 7.12602 14.1729 7.33953" stroke="white" stroke-linecap="round"/>
<path d="M11.2875 11.8599C10.9837 11.8978 11.1283 12.3242 10.9028 12.4369" stroke="white" stroke-linecap="round"/>
<path d="M7.92133 12.7256C7.53437 12.7608 7.09752 13.1045 6.76721 13.3026" stroke="white" stroke-linecap="round"/>
<path d="M8.6908 7.72441C8.87962 7.7008 9.0755 6.60036 9.0755 6.37793" stroke="white" stroke-linecap="round"/>
<path d="M3.78572 6.28168C3.66968 6.15881 3.58977 6.03583 3.49719 5.89697" stroke="white" stroke-linecap="round"/>
<path d="M3.97815 9.26318V10.225" stroke="white" stroke-linecap="round"/>
<path d="M1.66992 7.14722H2.43934" stroke="white" stroke-linecap="round"/>
<path d="M14.75 5.2236C14.9626 5.03462 15.1482 5.03125 15.4232 5.03125" stroke="white" stroke-linecap="round"/>
<path d="M13.5958 9.55178C13.8448 9.33048 14.3449 9.43527 14.5576 9.64795" stroke="white" stroke-linecap="round"/>
<path d="M3.97815 9.35933C4.31282 9.31471 4.62507 9.17575 4.93992 9.0708" stroke="#FFD707" stroke-linecap="round"/>
<path d="M5.70935 6.37793C5.94973 6.39796 6.15998 6.48681 6.38259 6.57028" stroke="#FFD707" stroke-linecap="round"/>
<path d="M7.44055 9.55176V10.4174" stroke="#FFD707" stroke-linecap="round"/>
<path d="M10.0372 5.3199C10.6223 5.07355 10.7041 5.62768 10.8066 6.08932" stroke="#FFD707" stroke-linecap="round"/>
<path d="M5.32458 2.72306C5.37869 2.60131 6.03843 2.22187 6.19018 2.146" stroke="#FFD707" stroke-linecap="round"/>
<path d="M12.7302 8.97461C12.8649 9.19351 12.8008 9.4531 12.8424 9.69594C12.8891 9.96817 13.0279 10.2524 13.1149 10.5134" stroke="#FFD707" stroke-linecap="round"/>
</svg>
