<svg width="16" height="15" viewBox="0 0 16 15" fill="none" xmlns="http://www.w3.org/2000/svg">
    <path d="M7.56083 2.98483L8.00909 3.80845L8.44319 2.97728C9.10458 1.71093 9.87755 1.01993 10.6232 0.709954C11.3642 0.401886 12.1349 0.446031 12.851 0.756704C14.309 1.38924 15.5 3.11748 15.5 5.04347C15.5 7.03429 14.6499 9.42157 13.2546 11.3109C11.8552 13.2059 9.98635 14.5 7.99995 14.5C6.01356 14.5 4.14472 13.2059 2.74534 11.3109C1.35011 9.42157 0.5 7.03429 0.5 5.04347C0.5 3.11179 1.66665 1.38622 3.1063 0.756019C3.81318 0.446587 4.58015 0.401338 5.32811 0.710345C6.08166 1.02167 6.87006 1.71562 7.56083 2.98483Z" stroke="#A65A2E"/>
</svg>
